<svg width="24" height="24" viewBox="0 0 24 24" fill="none" xmlns="http://www.w3.org/2000/svg">
<g clip-path="url(#clip0_214_1042)">
<path d="M9.06738 8.13568L12.9313 12L9.06738 15.8642L10.9721 17.7693L16.7415 12L10.9721 6.23096L9.06738 8.13568Z" fill="#4B4B4B"/>
<path d="M11.9996 0C5.37216 0.000703125 0.000703125 5.37216 0 12C0.000703125 18.6278 5.37216 23.9993 11.9996 24C18.6278 23.9993 23.9993 18.6278 24 12C23.9993 5.37216 18.6278 0.000703125 11.9996 0ZM19.1524 19.1524C17.3188 20.9842 14.796 22.1144 11.9996 22.1152C9.20367 22.1144 6.68086 20.9842 4.84758 19.1524C3.01537 17.3191 1.88522 14.796 1.88484 12C1.88522 9.20367 3.01537 6.68086 4.84758 4.84758C6.68086 3.01537 9.20367 1.88522 11.9996 1.88484C14.796 1.88522 17.3188 3.01537 19.1524 4.84758C20.9846 6.68086 22.1148 9.20367 22.1152 12C22.1148 14.796 20.9846 17.3191 19.1524 19.1524Z" fill="#4B4B4B"/>
</g>
<defs>
<clipPath id="clip0_214_1042">
<rect width="24" height="24" fill="white"/>
</clipPath>
</defs>
</svg>
